<svg xmlns="http://www.w3.org/2000/svg" xmlns:xlink="http://www.w3.org/1999/xlink" width="40" zoomAndPan="magnify" viewBox="0 0 30 30.000001" height="40" preserveAspectRatio="xMidYMid meet" version="1.0"><defs><clipPath id="ad71a26330"><path d="M 3.609375 2.816406 L 25.382812 2.816406 L 25.382812 13 L 3.609375 13 Z M 3.609375 2.816406 " clip-rule="nonzero"/></clipPath><clipPath id="5cee08f685"><path d="M 3.609375 7 L 15 7 L 15 25.316406 L 3.609375 25.316406 Z M 3.609375 7 " clip-rule="nonzero"/></clipPath><clipPath id="7ad541cdce"><path d="M 14 7 L 25.382812 7 L 25.382812 25.316406 L 14 25.316406 Z M 14 7 " clip-rule="nonzero"/></clipPath></defs><g clip-path="url(#ad71a26330)"><path fill="#ffe359" d="M 3.734375 7.675781 L 14.5 2.9375 L 25.261719 7.675781 L 14.5 12.410156 Z M 3.734375 7.675781 " fill-opacity="1" fill-rule="evenodd"/><path fill="#11132e" d="M 3.691406 7.574219 L 14.453125 2.835938 C 14.484375 2.824219 14.515625 2.824219 14.542969 2.839844 L 25.304688 7.574219 C 25.359375 7.597656 25.386719 7.664062 25.359375 7.71875 C 25.347656 7.746094 25.328125 7.765625 25.304688 7.777344 L 14.542969 12.511719 C 14.511719 12.523438 14.480469 12.523438 14.453125 12.511719 L 3.691406 7.777344 C 3.636719 7.75 3.609375 7.6875 3.636719 7.628906 C 3.644531 7.601562 3.667969 7.582031 3.691406 7.574219 Z M 14.496094 3.058594 L 4.011719 7.675781 L 14.496094 12.289062 L 24.984375 7.675781 Z M 14.496094 3.058594 " fill-opacity="1" fill-rule="nonzero"/></g><g clip-path="url(#5cee08f685)"><path fill="#ff404d" d="M 3.734375 7.675781 L 3.734375 20.449219 L 14.496094 25.183594 L 14.496094 12.410156 Z M 3.734375 7.675781 " fill-opacity="1" fill-rule="evenodd"/><path fill="#11132e" d="M 3.847656 7.84375 L 3.847656 20.378906 L 14.386719 25.015625 L 14.386719 12.480469 Z M 3.625 20.449219 L 3.625 7.675781 C 3.625 7.660156 3.628906 7.644531 3.632812 7.628906 C 3.660156 7.574219 3.722656 7.546875 3.78125 7.574219 L 14.535156 12.304688 C 14.578125 12.320312 14.609375 12.359375 14.609375 12.410156 L 14.609375 25.183594 C 14.609375 25.199219 14.605469 25.214844 14.597656 25.230469 C 14.574219 25.285156 14.507812 25.3125 14.453125 25.285156 L 3.699219 20.554688 C 3.65625 20.539062 3.625 20.5 3.625 20.449219 Z M 3.625 20.449219 " fill-opacity="1" fill-rule="nonzero"/></g><g clip-path="url(#7ad541cdce)"><path fill="#199cd4" d="M 25.257812 7.675781 L 25.257812 20.449219 L 14.496094 25.183594 L 14.496094 12.410156 Z M 25.257812 7.675781 " fill-opacity="1" fill-rule="evenodd"/><path fill="#11132e" d="M 25.371094 7.675781 L 25.371094 20.449219 C 25.371094 20.5 25.339844 20.539062 25.296875 20.554688 L 14.542969 25.285156 C 14.484375 25.3125 14.421875 25.285156 14.398438 25.230469 C 14.390625 25.214844 14.386719 25.199219 14.386719 25.183594 L 14.386719 12.410156 C 14.386719 12.359375 14.417969 12.320312 14.460938 12.304688 L 25.214844 7.574219 C 25.269531 7.546875 25.335938 7.574219 25.359375 7.628906 C 25.367188 7.644531 25.371094 7.660156 25.371094 7.675781 Z M 25.148438 20.378906 L 25.148438 7.84375 L 14.609375 12.480469 L 14.609375 25.015625 Z M 25.148438 20.378906 " fill-opacity="1" fill-rule="nonzero"/></g><path fill="#11132e" d="M 16.765625 7.675781 C 16.765625 7.804688 16.710938 7.929688 16.59375 8.046875 C 16.480469 8.167969 16.316406 8.273438 16.101562 8.363281 C 15.890625 8.457031 15.644531 8.527344 15.367188 8.574219 C 15.089844 8.625 14.796875 8.648438 14.496094 8.648438 C 14.195312 8.648438 13.90625 8.625 13.628906 8.574219 C 13.351562 8.527344 13.105469 8.457031 12.894531 8.363281 C 12.679688 8.273438 12.515625 8.167969 12.402344 8.046875 C 12.285156 7.929688 12.226562 7.804688 12.226562 7.675781 C 12.226562 7.546875 12.285156 7.421875 12.402344 7.300781 C 12.515625 7.179688 12.679688 7.074219 12.894531 6.984375 C 13.105469 6.894531 13.351562 6.824219 13.628906 6.773438 C 13.90625 6.722656 14.195312 6.699219 14.496094 6.699219 C 14.796875 6.699219 15.089844 6.722656 15.367188 6.773438 C 15.644531 6.824219 15.890625 6.894531 16.101562 6.984375 C 16.316406 7.074219 16.480469 7.179688 16.59375 7.300781 C 16.710938 7.421875 16.765625 7.546875 16.765625 7.675781 Z M 16.765625 7.675781 " fill-opacity="1" fill-rule="nonzero"/><path fill="#11132e" d="M 17.488281 18.078125 C 18.085938 18.078125 18.570312 18.851562 18.570312 19.808594 C 18.570312 20.765625 18.085938 21.542969 17.488281 21.542969 C 16.890625 21.542969 16.40625 20.765625 16.40625 19.808594 C 16.40625 18.851562 16.890625 18.078125 17.488281 18.078125 Z M 22.269531 11.316406 C 22.867188 11.316406 23.347656 12.09375 23.347656 13.050781 C 23.347656 14.003906 22.867188 14.78125 22.269531 14.78125 C 21.671875 14.78125 21.1875 14.003906 21.1875 13.050781 C 21.1875 12.09375 21.671875 11.316406 22.269531 11.316406 Z M 19.878906 14.699219 C 20.476562 14.699219 20.960938 15.472656 20.960938 16.429688 C 20.960938 17.386719 20.476562 18.160156 19.878906 18.160156 C 19.28125 18.160156 18.796875 17.386719 18.796875 16.429688 C 18.796875 15.472656 19.28125 14.699219 19.878906 14.699219 Z M 19.878906 14.699219 " fill-opacity="1" fill-rule="evenodd"/><path fill="#11132e" d="M 6.230469 10.109375 C 6.828125 10.109375 7.3125 10.882812 7.3125 11.839844 C 7.3125 12.796875 6.828125 13.574219 6.230469 13.574219 C 5.636719 13.574219 5.152344 12.796875 5.152344 11.839844 C 5.152344 10.882812 5.636719 10.109375 6.230469 10.109375 Z M 9.019531 14.363281 C 9.617188 14.363281 10.097656 15.136719 10.097656 16.09375 C 10.097656 17.050781 9.617188 17.824219 9.019531 17.824219 C 8.421875 17.824219 7.9375 17.050781 7.9375 16.09375 C 7.9375 15.136719 8.421875 14.363281 9.019531 14.363281 Z M 12 19.285156 C 12.597656 19.285156 13.082031 20.0625 13.082031 21.019531 C 13.082031 21.972656 12.597656 22.75 12 22.75 C 11.40625 22.75 10.921875 21.972656 10.921875 21.019531 C 10.921875 20.0625 11.40625 19.285156 12 19.285156 Z M 6.230469 16.746094 C 6.828125 16.746094 7.3125 17.519531 7.3125 18.476562 C 7.3125 19.433594 6.828125 20.207031 6.230469 20.207031 C 5.636719 20.207031 5.152344 19.433594 5.152344 18.476562 C 5.152344 17.519531 5.636719 16.746094 6.230469 16.746094 Z M 12 12.679688 C 12.597656 12.679688 13.082031 13.453125 13.082031 14.410156 C 13.082031 15.367188 12.597656 16.144531 12 16.144531 C 11.40625 16.144531 10.921875 15.367188 10.921875 14.410156 C 10.921875 13.453125 11.40625 12.679688 12 12.679688 Z M 12 12.679688 " fill-opacity="1" fill-rule="evenodd"/></svg>