<svg xmlns="http://www.w3.org/2000/svg" xmlns:xlink="http://www.w3.org/1999/xlink" width="40" zoomAndPan="magnify" viewBox="0 0 30 30.000001" height="40" preserveAspectRatio="xMidYMid meet" version="1.0"><defs><clipPath id="cdcc585d54"><path d="M 4.449219 3.484375 L 26.460938 3.484375 L 26.460938 25.257812 L 4.449219 25.257812 Z M 4.449219 3.484375 " clip-rule="nonzero"/></clipPath><clipPath id="b773ffd0db"><path d="M 3.507812 3.484375 L 26 3.484375 L 26 25.257812 L 3.507812 25.257812 Z M 3.507812 3.484375 " clip-rule="nonzero"/></clipPath></defs><g clip-path="url(#cdcc585d54)"><path fill="#ffbd00" d="M 15.496094 3.621094 C 15.292969 3.621094 15.09375 3.621094 14.890625 3.636719 C 13.324219 3.726562 11.851562 4.136719 10.527344 4.8125 C 9.800781 5.175781 9.125 5.625 8.5 6.140625 C 7.757812 6.757812 7.089844 7.472656 6.53125 8.269531 C 6.054688 8.9375 5.65625 9.667969 5.34375 10.4375 C 4.820312 11.71875 4.535156 13.117188 4.535156 14.582031 C 4.535156 20.636719 9.433594 25.546875 15.496094 25.546875 C 16.960938 25.546875 18.359375 25.257812 19.636719 24.734375 C 20.410156 24.421875 21.136719 24.023438 21.808594 23.546875 C 22.601562 22.988281 23.320312 22.324219 23.9375 21.582031 C 24.453125 20.960938 24.902344 20.277344 25.265625 19.550781 C 26.03125 18.058594 26.460938 16.371094 26.460938 14.582031 C 26.460938 8.527344 21.554688 3.621094 15.496094 3.621094 " fill-opacity="1" fill-rule="nonzero"/></g><g clip-path="url(#b773ffd0db)"><path fill="#ffde50" d="M 14.492188 3.484375 C 14.292969 3.484375 14.089844 3.488281 13.886719 3.5 C 12.914062 3.554688 11.976562 3.738281 11.085938 4.027344 C 10.546875 4.203125 10.023438 4.421875 9.527344 4.675781 C 9.515625 4.679688 9.511719 4.683594 9.503906 4.683594 C 9.292969 4.792969 9.082031 4.910156 8.882812 5.03125 C 8.589844 5.199219 8.308594 5.386719 8.042969 5.589844 C 7.855469 5.71875 7.675781 5.859375 7.5 6.003906 C 7.269531 6.199219 7.042969 6.398438 6.828125 6.609375 C 6.355469 7.070312 5.925781 7.578125 5.542969 8.117188 C 5.539062 8.117188 5.535156 8.128906 5.53125 8.132812 C 5.054688 8.804688 4.652344 9.53125 4.34375 10.300781 C 3.816406 11.582031 3.53125 12.984375 3.53125 14.449219 C 3.53125 20.503906 8.433594 25.410156 14.492188 25.410156 C 15.960938 25.410156 17.359375 25.121094 18.632812 24.597656 C 19.40625 24.289062 20.132812 23.886719 20.804688 23.410156 C 20.8125 23.40625 20.816406 23.402344 20.824219 23.394531 C 21.367188 23.015625 21.871094 22.585938 22.332031 22.113281 C 22.546875 21.898438 22.742188 21.679688 22.9375 21.445312 C 23.078125 21.265625 23.226562 21.085938 23.355469 20.898438 C 23.554688 20.628906 23.742188 20.351562 23.910156 20.058594 C 24.03125 19.859375 24.144531 19.648438 24.253906 19.4375 C 24.253906 19.429688 24.261719 19.425781 24.265625 19.414062 C 24.519531 18.914062 24.738281 18.394531 24.914062 17.855469 C 25.269531 16.78125 25.457031 15.636719 25.457031 14.449219 C 25.457031 8.390625 20.550781 3.484375 14.492188 3.484375 " fill-opacity="1" fill-rule="nonzero"/></g><path fill="#ffea94" d="M 22.332031 22.113281 C 21.871094 22.585938 21.367188 23.015625 20.824219 23.394531 L 5.542969 8.117188 C 5.925781 7.578125 6.355469 7.070312 6.828125 6.609375 L 22.332031 22.113281 " fill-opacity="1" fill-rule="nonzero"/><path fill="#ffea94" d="M 24.914062 17.855469 C 24.738281 18.394531 24.519531 18.914062 24.265625 19.414062 C 24.261719 19.425781 24.253906 19.429688 24.253906 19.4375 L 9.503906 4.683594 C 9.511719 4.683594 9.515625 4.679688 9.527344 4.675781 C 10.023438 4.421875 10.546875 4.203125 11.085938 4.027344 L 24.914062 17.855469 " fill-opacity="1" fill-rule="nonzero"/><path fill="#ffea94" d="M 23.910156 20.058594 C 23.742188 20.351562 23.554688 20.628906 23.355469 20.898438 L 8.042969 5.589844 C 8.308594 5.386719 8.589844 5.199219 8.882812 5.03125 L 23.910156 20.058594 " fill-opacity="1" fill-rule="nonzero"/><path fill="#faa300" d="M 9.914062 20.21875 C 11.359375 21.660156 13.203125 22.449219 15.089844 22.585938 C 16.976562 22.453125 18.828125 21.660156 20.269531 20.21875 L 9.34375 9.300781 C 6.734375 12.507812 6.929688 17.230469 9.914062 20.21875 " fill-opacity="1" fill-rule="nonzero"/><path fill="#333333" d="M 8.722656 20.21875 C 10.46875 21.96875 12.808594 22.757812 15.089844 22.585938 C 13.203125 22.449219 11.359375 21.660156 9.914062 20.21875 C 6.929688 17.230469 6.734375 12.507812 9.34375 9.300781 C 9.527344 9.085938 9.714844 8.875 9.914062 8.671875 C 11.355469 7.230469 13.203125 6.433594 15.089844 6.304688 C 12.804688 6.132812 10.46875 6.921875 8.71875 8.671875 C 5.527344 11.859375 5.53125 17.03125 8.722656 20.21875 " fill-opacity="1" fill-rule="nonzero"/><path fill="#ffbd00" d="M 9.34375 9.300781 L 20.269531 20.21875 C 23.460938 17.03125 23.460938 11.863281 20.269531 8.671875 C 18.828125 7.230469 16.976562 6.433594 15.089844 6.304688 C 13.203125 6.433594 11.355469 7.230469 9.914062 8.671875 C 9.714844 8.875 9.527344 9.085938 9.34375 9.300781 " fill-opacity="1" fill-rule="nonzero"/><path fill="#333333" d="M 14.449219 13.308594 L 12.855469 13.308594 L 12.855469 10.601562 L 14.535156 10.601562 C 15.410156 10.601562 15.933594 10.613281 16.109375 10.636719 C 16.457031 10.695312 16.726562 10.835938 16.917969 11.054688 C 17.109375 11.273438 17.207031 11.566406 17.207031 11.925781 C 17.207031 12.246094 17.132812 12.511719 16.988281 12.726562 C 16.84375 12.941406 16.640625 13.089844 16.386719 13.179688 C 16.128906 13.265625 15.484375 13.308594 14.449219 13.308594 Z M 18.992188 17.386719 C 18.476562 16.554688 18.066406 15.976562 17.765625 15.652344 C 17.460938 15.328125 17.078125 15.027344 16.609375 14.757812 C 17.546875 14.621094 18.25 14.292969 18.722656 13.769531 C 19.191406 13.25 19.425781 12.589844 19.425781 11.789062 C 19.425781 11.15625 19.273438 10.59375 18.960938 10.105469 C 18.652344 9.613281 18.238281 9.273438 17.71875 9.082031 C 17.203125 8.890625 16.375 8.792969 15.234375 8.792969 L 10.699219 8.792969 L 10.699219 19.46875 L 12.855469 19.46875 L 12.855469 15.011719 L 13.289062 15.011719 C 13.785156 15.011719 14.148438 15.050781 14.375 15.132812 C 14.601562 15.210938 14.820312 15.359375 15.023438 15.578125 C 15.226562 15.792969 15.605469 16.3125 16.160156 17.144531 L 17.714844 19.46875 L 20.292969 19.46875 L 18.992188 17.386719 " fill-opacity="1" fill-rule="nonzero"/><path fill="#ffea94" d="M 14.042969 13.472656 L 12.449219 13.472656 L 12.449219 10.765625 L 14.128906 10.765625 C 15.003906 10.765625 15.527344 10.777344 15.703125 10.800781 C 16.050781 10.859375 16.324219 11 16.515625 11.21875 C 16.707031 11.441406 16.800781 11.730469 16.800781 12.089844 C 16.800781 12.410156 16.726562 12.675781 16.582031 12.890625 C 16.4375 13.105469 16.234375 13.253906 15.980469 13.34375 C 15.722656 13.429688 15.074219 13.472656 14.042969 13.472656 Z M 18.585938 17.550781 C 18.070312 16.71875 17.660156 16.140625 17.359375 15.816406 C 17.054688 15.492188 16.671875 15.191406 16.203125 14.921875 C 17.140625 14.785156 17.84375 14.457031 18.316406 13.933594 C 18.785156 13.414062 19.023438 12.75 19.023438 11.949219 C 19.023438 11.320312 18.867188 10.757812 18.554688 10.269531 C 18.246094 9.78125 17.832031 9.4375 17.316406 9.246094 C 16.796875 9.054688 15.96875 8.960938 14.828125 8.960938 L 10.292969 8.960938 L 10.292969 19.632812 L 12.449219 19.632812 L 12.449219 15.175781 L 12.886719 15.175781 C 13.378906 15.175781 13.742188 15.214844 13.96875 15.296875 C 14.199219 15.375 14.414062 15.523438 14.617188 15.742188 C 14.820312 15.957031 15.199219 16.480469 15.753906 17.308594 L 17.3125 19.632812 L 19.886719 19.632812 L 18.585938 17.550781 " fill-opacity="1" fill-rule="nonzero"/></svg>